<?xml version="1.0" encoding="UTF-8" standalone="no"?>
<!-- Created with Inkscape (http://www.inkscape.org/) -->

<svg
   version="1.1"
   id="svg2"
   xml:space="preserve"
   width="1000"
   height="800"
   viewBox="0 0 1000 800"
   sodipodi:docname="logo.svg"
   inkscape:export-filename="C:\Users\KhotsoTsoaela\Desktop\maru_white.png"
   inkscape:export-xdpi="96"
   inkscape:export-ydpi="96"
   inkscape:version="1.1.1 (3bf5ae0d25, 2021-09-20)"
   xmlns:inkscape="http://www.inkscape.org/namespaces/inkscape"
   xmlns:sodipodi="http://sodipodi.sourceforge.net/DTD/sodipodi-0.dtd"
   xmlns="http://www.w3.org/2000/svg"
   xmlns:svg="http://www.w3.org/2000/svg"><defs
     id="defs6" /><sodipodi:namedview
     id="namedview4"
     pagecolor="#ffffff"
     bordercolor="#666666"
     borderopacity="1.0"
     inkscape:pageshadow="2"
     inkscape:pageopacity="0.0"
     inkscape:pagecheckerboard="0"
     showgrid="false"
     inkscape:zoom="0.5075"
     inkscape:cx="320.19705"
     inkscape:cy="566.50247"
     inkscape:window-width="1920"
     inkscape:window-height="1001"
     inkscape:window-x="-9"
     inkscape:window-y="-9"
     inkscape:window-maximized="1"
     inkscape:current-layer="g10" /><g
     inkscape:groupmode="layer"
     id="layer1"
     inkscape:label="ink_ext_XXXXXX 1"
     style="display:inline" /><g
     id="g8"
     inkscape:groupmode="layer"
     inkscape:label="ink_ext_XXXXXX"
     transform="matrix(1.3333333,0,0,-1.3333333,0,1600)"
     style="display:inline"><g
       id="g10"
       transform="scale(0.1)"
       style="fill:#f9f9f9"><path
         d="m 2222.1279,10130.511 c -0.75,159.21 10.2,318.45 31.29,476.35 -71.9,-134.89 -127.17,-278.34 -163.43,-426.26 -35.9,-152.59 -52.32,-309.3193 -48.17,-465.1395 0.3,-11.02 -8.4,-20.2 -19.42,-20.49 h -0.75 -0.32 c -314.74,4.68 -622.49,-89.77 -869.35,-269.21 -122.44,-90.47 -229.29999,-199.62 -315.71999,-321.86 -87.72,-121.38 -151.91,-257.83 -192.93,-398.87 l -16.11,-52.58 -10.71,-54.01 c -6.26,-36.11 -16.83,-71.14 -18.45,-107.89 -3.24,-36.38 -7.54,-72.46 -10.2,-108.58 l 0.53,-108.84 c 6.56,-144.72 35.04,-286.34 82.78,-419.93 102.23,-264.47 282.46,-494.98 514.91999,-645.38 115.84,-74.98 241.23,-133.27 372.47,-171.04 l 99.75,-22.64 c 33.12,-7.78 67.43,-9.64 100.95,-15.09 16.9,-1.89 33.56,-5.65 50.61,-6.17 l 51.1,-1.53 c 34.99,-0.75 65.09,-3.56 107.11,-2.09 315.92,3.79 631.84,5.1 947.76,2.81 358.12,-2.08 716.23,-8.71 1074.34,-18.6 -93.79,56.47 -185.06,116.68 -272.83,181.18 -316.05,231.63 -589.35,514.59 -812.19,828.86 -223.59,314.08 -394.33,661.53 -510.16,1024.36 -114.49,363.12 -173.71,742.31 -172.87,1121.6595 0,0.18 -0.01,0.36 -0.01,0.55 0,0.14 0.01,0.29 0.01,0.43"
         style="fill:#f2f2f2;fill-opacity:1;fill-rule:nonzero;stroke:none"
         id="path14" /><path
         d="m 6573.5579,9137.1614 c 290.03,-122.29 519.04,-327.8999 671.65,-576.89 -99.5,439.29 -402.2,826.06 -849.78,1014.78 -737.6,311.0002 -1588.28,-33.37 -1900.04,-769.18 -189.18,-446.49 -136.1,-934.31 99.4,-1318.54 -64.48,284.66 -43.86,591.33 78.72,880.65 311.77,735.82 1162.45,1080.19 1900.05,769.18"
         style="fill:#f9f9f9;fill-opacity:1;fill-rule:nonzero;stroke:none"
         id="path16" /><path
         d="m 7302.1279,8248.8114 c -18.91,-227.27 -86.4,-446.13 -198.18,-636.22 -111.59,-190.14 -265.37,-350.98 -443.03,-470.92 -179.11,-118.29 -382.33,-194.08 -589.94,-221 -51.8,-7.4 -104.11,-10.24 -156.18,-11.41 -26.03,-0.79 -52.14,0.58 -78.11,0.62 l -84.79,3.01 -340.96,12.58 c -191.11,6.55 -382.22,12.26 -573.33,17.76 -348.61,75.95 -688.94,206.02 -1001.79,390.56 -316.98,187.0501 -607.35,427.19 -849.29,712.82 -241.52,285.54 -436.63,614.62 -566.19,969.92 -131.53,354.67 -196.84,734.1701 -198.22,1113.5496 0,-0.19 0.01,-0.37 0.01,-0.55 -0.84,-379.3495 58.38,-758.5396 172.87,-1121.6596 115.83,-362.83 286.57,-710.2799 510.16,-1024.3599 222.84,-314.27 496.14,-597.2301 812.19,-828.86 87.77,-64.5 179.04,-124.71 272.83,-181.18 -358.11,9.89 -716.22,16.52 -1074.34,18.6 -268.71,1.95 -537.43,0.86 -806.14,-1.71 l -108.36,0.92 -42.62,0.13 c -14.12,0.05 -29.13,-0.04 -40.49,0.49 -24.41,1.08 -48.93,0.55 -73.2,3.18 -24.34,1.82 -48.67,3.59 -72.77,7.3 -24.25,2.64 -48.25,6.76 -72.15,11.39 -95.74,17.72 -189.26,46.71 -277.92,86.73 -88.5,40.13 -173.65,88.48 -251.31,147.38 -77.68,58.78 -148.82,126.29 -211.62999,200.85 -123.87,150.39 -215.85,327.63 -260.63,517.82 -45.81,189.58 -46.45,391.71 -3.88,583.13 21.09,95.97 54.68,189.2 98.22,277.74 43.26,88.64 95.98,173.31 159.19,250.03 125.31999,154.39 287.37999,279.68 469.52999,364.55 91.29,42.09 187.92,72.73 287.01,93.37 49.5,10.74 99.9,17.31 150.55,22.53 l 76.85,4.74 85.24,2.6899 154.7,4.88 -4.57,145.25 c -5.12,162.9602 11.74,327.2996 51.63,486.9096 -0.41,-23.95 -1.08,-47.9 -0.96,-71.86 0,-0.14 -0.01,-0.29 -0.01,-0.43 0.12,25.22 1.06,50.43 1.75,75.64 14.74,58.45 32.37,116.31 53.45,173.16 77.71,213.41 198.6,413.11 353.37,585.68 155.41,172.2 346.45,314.38 558.94,419.33 213.15,103.74 448.71,167.61 691.99,187.34 -243.22,19.52 -494.08,-11.83 -730.47,-94.21 -237.25,-80.52 -458.55,-213.49 -647.81,-384.65 -189.98,-170.7 -345.63,-382.53 -454.59,-618.36 -87.14,-189.94 -143.75,-395.46 -166.51,-605.3894 -13.26,0.03 -26.57,0.02 -39.7,-0.15 -62.72,-2.28 -125.62,-6.61 -188.01,-15.92 -124.85,-17.95 -248,-50.9001 -365.95,-97.6801 -117.71,-47.33 -230.36,-108.08 -334.82999,-181.11 -104.23,-73.39 -199.26,-159.88 -284.25,-255.5 -170.06,-191.2 -294.6,-424.84 -358.23,-675.13 -32,-125.04 -49.5,-253.93 -52.21,-382.97 -2.52,-129.04 11.49,-258.72 39.32,-385.34 55.13,-253.65 172.66,-493.52 337.81,-693.85 165.7,-199.67 376.70999,-362.69 615.42999,-466.6801 118.91,-52.68 244.24,-90.77 372.12,-113.75 31.94,-5.96 63.99,-11.1599 96.27,-14.64 32.17,-4.55 64.51,-6.92 96.86,-9.11 32.33,-3.02 64.74,-2.63 97.1,-3.62 l 44.75,-0.27 42.62,0.12 108.49,0.92 c 268.67,-2.57 537.34,-3.66 806.01,-1.71 631.84,3.67 1263.68,20.23 1895.52,47.05 l 14.35,0.57 c 3.05,0.13 5.98,0.83 8.99,1.14 192.08,5.51 384.16,11.26 576.24,17.84 l 340.96,12.58 85.69,3.28 c 30.8,2.13 61.61,2.79 92.24,6.41 61.26,6.56 122.25,15.3 182.14,29.03 240.64,50.82 464.52,163.1 650.51,315.45 376.07,303.17 578.84,787.96 539.65,1243.23"
         style="fill:#f9f9f9;fill-opacity:1;fill-rule:nonzero;stroke:none"
         id="path18" /></g></g></svg>
